<svg width="14" height="24" viewBox="0 0 14 24" fill="none" xmlns="http://www.w3.org/2000/svg">
<rect width="14" height="24" fill="#E5E5E5"/>
<g clip-path="url(#clip0)">
<rect width="1920" height="1437" transform="translate(-1540 -325)" fill="white"/>
<rect x="-1540" y="-325" width="1921" height="1437" fill="#E5CF94"/>
<rect x="-1540" y="-325" width="1920" height="374" fill="#965A1B"/>
<path d="M-357 -15C-357 -17.7614 -354.761 -20 -352 -20H33C35.7614 -20 38 -17.7614 38 -15V111C38 113.761 35.7614 116 33 116H-352C-354.761 116 -357 113.761 -357 111V-15Z" fill="#5F3305"/>
<path d="M7 1V23" stroke="white" stroke-width="2" stroke-linecap="round" stroke-linejoin="round"/>
<path d="M12 4.99998H4.5C3.57174 4.99998 2.6815 5.36873 2.02513 6.02511C1.36875 6.68149 1 7.57173 1 8.49999C1 9.42824 1.36875 10.3185 2.02513 10.9749C2.6815 11.6312 3.57174 12 4.5 12H9.5C10.4283 12 11.3185 12.3687 11.9749 13.0251C12.6313 13.6815 13 14.5717 13 15.5C13 16.4282 12.6313 17.3185 11.9749 17.9749C11.3185 18.6312 10.4283 19 9.5 19H1" stroke="white" stroke-width="2" stroke-linecap="round" stroke-linejoin="round"/>
</g>
<defs>
<clipPath id="clip0">
<rect width="1920" height="1437" fill="white" transform="translate(-1540 -325)"/>
</clipPath>
</defs>
</svg>
